<mxfile host="65bd71144e" scale="3" border="0">
    <diagram id="xQeQNVIOwfyEf-FpTUSx" name="Page-1">
        <mxGraphModel dx="479" dy="899" grid="1" gridSize="10" guides="1" tooltips="1" connect="1" arrows="1" fold="1" page="1" pageScale="1" pageWidth="1100" pageHeight="850" background="#ffffff" math="0" shadow="0">
            <root>
                <mxCell id="0"/>
                <mxCell id="1" parent="0"/>
                <mxCell id="11" value="" style="shape=image;imageAspect=0;aspect=fixed;verticalLabelPosition=bottom;verticalAlign=top;fillStyle=auto;strokeWidth=1;fillColor=#2F7ED0;image=data:image/png,iVBORw0KGgoAAAANSUhEUgAAAdwAAAGECAYAAACcfpFvAAAAAXNSR0IArs4c6QAAIABJREFUeF7snQd8HNW5t/9nZnZX3UVypxebYocOhtBJQnchoZmSBsm9STAtFBuM6S4UG7j5knsTcm8SSiAEQmwgoZpOSEJ3B1dZ7urSandn5v1+Z3Yly7IsS6tZeUb+L1GsMuedM897dp49Z2bOUeCLBEiABEiABEgg5wRUzvfAHZAACZAACZAACYDCZSMgARIgARIggR4gQOH2AGTuggRIgARIgAQoXLYBEiABEiABEugBAhRuD0DmLkiABEiABEiAwmUbIAESIAESIIEeIEDh9gBk7oIESIAESIAEKFy2ARIgARIgARLoAQIUbg9A5i5IgARIgARIgMJlGyABEiABEiCBHiBA4fYAZO6CBEiABEiABChctgESIAESIAES6AECFG4PQOYuSIAESIAESIDCZRsgARIgARIggR4gQOH2AGTuggRIgARIgAQoXLYBEiABEiABEugBAhRuD0DmLkiABEiABEiAwmUbIAESIAESIIEeIEDh9gBk7oIESIAESIAEKFy2ARIgARIgARLoAQIUbg9A5i5IgARIgARIgMJlGyABEiABEiCBHiCwSwj3vhc3SXVdAzbX1CCZciFiwHUFIpqwC/2PqObvtkddwc1hQpQAAgX9P69a8L7d6vutf2j1xzblcljNHgidaZLp5LSQkK1+bqcaOoF89T4C+o2x1avtz+E5ZKU6bqPNfzX0aSB9KoBpqPT3KvOvoWAYBvQ2lgJK+/XBneOHsfGHpBn02kRd+YfVsmazjZr6FBqaBElXYGu9igGlLBgwoI0rSmtUfwmwzZt7Sxa1DHd0zvcr583uaC3cdmO3MnN4T0PtHFmbA1fep5Be21T9aja7RhzvPRrO1r5j4bZp422PNfNh3IsjgAmBCSBiuMiLAGUFNob2NbFnWR5uOXdvvmEC+I7oVUm59olVsmJ9FdZVN6HRVnAQhQsLAgOidNPUHxVNiNv6sN2MaNNv5O1+CBXVY2/zrXvSW04uhveZN/1Kb7P1iSecp6Ft3xXbnpi2I9xe1XoDeHYIbJXC2dJ3JNwd4t6qQ6CHxPSZTZ8GXEBsWG4CUSRRYKbQL9/A3gMK8PCVR/BdskOwPbdBr0jGVU9UyMJVVdjUIEjBgqMMOBDvP0+TXoNUUK7uK+nfpA/b6zm1fIoM/ifnHYxI9VyrycGeOho90Jlxmz9s9NQwQw6OkSF3bQJGJ97Asp1t0mW3PkfpfkP6XJYefdOnMlMPPYsLw7VRII0oKxQcOLQAs34wqlec68PegkKdhFufXyuff7UBa6tsNDkWXBWBa+ghYy1ZG4abghIbEAdG85d3XcSAaRqwDANi6Gu56YZsqHQP1xNxq96jbuxKXzvxrqWkh6LTV1j48o2AZrqdjkt6NHlb3t5vvDL6bONbTTL53zae/gDXm1/pdt/+q6eOfes6bOG9nSaQs3S0l+ltf7eja7KtbshorumO2qlKj6Q137Pg3WuSaXeuCBxx4TgOHP29m4eUROHoETw9wGzo0Tyz5dKXJXFEJIF8I4F+BcAhe5fh3gkH7agGOWPKwL6epnoW53d/u0gWlDeiPmkBKj/dXxUXJmwYKgXLTSJmOCjtm4/BA/qhrG8Rpo3pz8bWs2ni3kiABHJIYPILjmyoasDGqjpsrK5HfZMNW19G05fOlA0ox/sAaYiNvkYdDhgYw6M/PZLnwRzmpKPQoQQ/5uGPZdXmJBJuHqAblwtEYCMqScRQj0ElJg7YcxCmXTwilMe3k9oCd0sCJBByAlOeXStLVm3Cqg31iBt5SJh5gKMvp7nIRxPypQG793Hw5M0n89y4E3IdKui3z9kk7ywqx5oGAymJAK5CVEn6ZgGnAUP7RXH4/gNx+/g9Q3VcOyHv3CUJkEAvJ3DRr1fLZ6trIY4JA2b6rmZJIYJ6lBYmceLwvph0Pq/t9mQzCI2YJj27Tt6bvxY1KRMJIwLX1j1aGzG3DqV5KRy63yDMuGRkaI6nJ5PMfZEACeyaBG58br38c+E6bKoHYERgO/qyWxJRxDEw1ohjhg/AHRMO5Xmzh5pHaECfPG2BbGzUN0aZcB09dJxAAeLYq5/gjz8/LjTH0UN55W5IgARIoIXA2F+ulq9Wb0RKxbw7dwy4yHMaUJbXhBNH9MWUiyjdnmguoRDV2Q8tk/JNDXAQ8e42Vk4cJaoWh+xZgv/6MW8A6ImGwn2QAAmEm8CP/7BK/rV4PfSgcgqmfoASUbcJg/MbcMohu+PnY4aHwgdhzkLgAV/2aIV8uqYBKVtg2QlE3EYUmgkcsU8fzP7hIYGvf5gbB+tOAiTQuwj8xxMV8u+F5WiQPDh61j0RFKkG7FZi4y83Hc/zaY7THWjAV/6hQj5dUYU6NwJlp5BvN6AYlThi7xI88CMOI+e4bTA8CZBALyTwH4+vlvcXrPWGlx2xvNmpCtGAQ4cKfvXTEwLthLCnI7Bw73mpVub+uxxVKVPfjIyY3YiiZBUO2S2CX01kowh7w2P9SYAEdh6BCY+uls+/Wg/HKoQ4gigSGBzZhG8cNhQ3jD04sF7YecT82XNgwV70y2WyoKIeKRUB4KAgVYl9i1N4evJpga2zPylhFBIgARLIPYHxjyyRxeuavLuX4Toolirs1dfBUzfyGd1c0Q+kvG6ZWy+vfbQCdbZecEA/O9aEQVYtzj5kMK4Zd0Ag65yrBDEuCZAACeSKwOg7v5DapF7oxUBMmtDPbMBJ+0Zw53eP4Xk2B9ADCfWCX62UheW1cIyY9/hPvlON0fv3wYPf+1og65uDvDAkCZAACeScwE8eq5B35pej0SjwngApVAnsX1iNpyd/i+faHNAPJNQTpy2SjQ3plTAK3ToMidZi7u2nBrKuOcgJQ5IACZBAjxH45n2fyYpavWiCgShsDJKNOPmAUky99DCec33OQuCAXv+nDTLv8w1oSBkwlY0SdzOO3D2CR37KW9Z9zj3DkQAJkAAmzamRuR8uh42It5RpkVODEWXAY9fznOt38wiccC/8fytl8ZpG2HpxZYmjzNiI1+85I3D19DsRjEcCJEACO4vAyTMXy6baBBxY3rXcAbEGvHIbnwbxOx+BE9nXb18otfpmKTeJqFuDI/eI4L9/cnTg6ul3IhiPBEiABHYWgQv+e7UsXLkJtpmHqHJQgmqcdYCJSROO5bnXx6QECuY1zyTl9Y+WwTEjsNx6FNibMeaY3TDpPE455mPOGYoESIAEtiLw8+cb5JUPFiJhFcGEiwKnBift3oT7//OUQDki7GkLFMzLf7tJ/v3VJsC0EEnVoK9sxLzpHE4OeyNj/UmABIJPYPTUj6TaKYS+fSrfqcXhpbX4zc+/EShHBJ9ixzUMFMzxv1gti9c2AMpEXqoKgyOVePEuCjfsjYz1JwESCD6Bc2YtkS8rlXfjVJ7bgAMKK/HHWyhcPzMXKOF+474lUl7jQkELtxIHDkjhiZ/zTjk/E85YJEACJNAegQm/WS0frUoAriBP4tjd2oA5d1C4fraWQAn3+Hu/8Na81cLVUzkethvw6FWc8cTPhDMWCZAACbRH4CdPb5bXv6iEEoWom8BAYwPOOGworj9vRKA8EebsBQrkUXd8JrV2DEpM5Kc24qg9TfwP71AOc/ti3UmABEJE4IApi0Vf0ou4CZRiI04dOQC3XcTFDPxKYaCEe9jUz6TezYMhQEFqI0bvZeKX/zk6UHX0CzzjkAAJkEDQCIyYskiUsmC6SZSqjTjhgP6455JRPAf7lKjAgLz9pVp55t2ViCMPEaRQZK/HNw7ui+mXcXoxn3LNMCRAAiSwXQKT/9Ykf3pnFSzDhOHG0Q8bccKB/THtkkMC44mwpy8wIKe+WCdPv7sSSaWF24Q+7jqcMaoMd1x8aGDqGPZks/4kQAIk0BGB/W5ZIhEzLdw+agNOPLAU0ydQuH61msDIbMqLdfLMu6uQNGKIII4+zjqcOaoMt1/MHq5fyWYcEiABEuiIwPDJi8WMWFBOHH3VBpx0YBmmTeAqbX61msAI95a5tfLn91cj5Qm30RPuWSPLMHXC4YGpo1/QGYcESIAEgkhg+KRFYkbTwu2DDTjpoAGYTuH6lqrAyGzynBp57oNyT7iWxNFPC3dUf0yZcERg6ugbdQYiARIggQAS2P/m+WJFo4AbR39swokHDsA03jTlW6YCI7PJf9XCXY2Ume9dw+1nV+DsUf1xC4XrW7IZiARIgAQ6IrD/zV+khetkhHvQQArXxyYTGOHqNRn/8v6qjHAT6JuqwDmj+uGWS44MTB195M5QJEACJBA4AlsLd7M3pHwve7i+5SkwMps0p1b+8sFK2EY+LCTRN7UG54zqi1suOSowdfSNOgORAAmQQAAJ6CFl7xqu24T+sgknsofra5YCI7Ob59bK8+83CzflCffcUcWYfAmndvQ14wxGAiRAAtshMHzSfDH0XcpuE0rcjTjxgDLcdzkfzfSrwQRKuH/VwjXzYcJG31Q5zh1ZhMmXcKYpv5LNOCRAAiTQEYHhkxaIETHTwnU24IQDynD/d/lopl+tJkDCrZO/vr+iRbj9tHAPLsKkSylcv5LNOCRAAiTQoXAnLxDDaiXcEWW4/3sUrl+tJlDCnfvBCiQN3cNNoV9qDcaOLMJN7OH6lWvGIQESIIEOCQzPCNdwm9DH2YDjR5ThPgrXt1YTGOFOmlsnc7RwVZ43pKyFO25kEW5kD9e3ZDMQCZAACXSmh6uFW6yHlIeX4v7vc/Ihv1pNgIRbL3PfX4akkQdTOWnhHlyIGy49NjB19As645AACZBAEAm07uFSuP5nKDAymzS3XuZ+sBwpIw+G18Mtzwj3uMDU0X/8jEgCJEACwSFA4eY2F4GRGYWb20QzOgmQAAnsiEBb4R4/vD8e+D6n190Rt87+ncLtLCluRwIkQAK9nACFm9sEU7i55cvoJEACJBAaAhRublNF4eaWL6OTAAmQQGgIULi5TRWFm1u+jE4CJEACoSFA4eY2VRRubvkyOgmQAAmEhgCFm9tUUbi55cvoJEACJBAaAhRublNF4eaWL6OTAAmQQGgIULi5TRWFm1u+jE4CJEACoSFA4eY2VRRubvkyOgmQAAmEhgCFm9tUUbi55cvoJEACJBAaAhRublNF4eaWL6OTAAmQQGgIULi5TRWFm1u+jE4CJEACoSGQFq6F9PJ868G5lP1NHYXrL09GIwESIIHQEhg+eaEYlgnDTWSE24+LF/iYTQrXR5gMRQIkQAJhJkDh5jZ7FG5u+TI6CZAACYSGwPBbFophsoebq4RRuLkiy7gkQAIkEDIC+2WEa3FIOSeZo3BzgpVBSYAESCB8BCjc3OaMws0tX0YnARIggdAQ2Fq463iXss+Zo3B9BspwJEACJBBWAvoaLkwT6SFlLVx9l/KRgfFEWLk21zswICfNrZe5HyxHysiDARv9UuUYd3Ahbrj0uMDUMezJZv1JgARIoCMCWwt3baaHS+H61WoCIzMK16+UMg4JkAAJZEeAws2OW2dLUbidJcXtSIAESKCXE9DCVYYJUziknItUU7i5oMqYJEACJBBCAiNuXSSiMtdwXT2kzGu4fqaRwvWTJmORAAmQQIgJtBZuibMWXx9B4fqZTgrXT5qMRQIkQAIhJtAsXNNNoI9dkRbuD44KjCdCjNaremBA8qapsDcl1p8ESCDsBEZMWSwCAy3C1UPKP6Rw/corhesXScYhARIggZAToHBzm0AKN7d8GZ0ESIAEQkOAws1tqijc3PJldBIgARIIDQEtXFcULEmmr+FySNnX3FG4vuJkMBIgARIIL4EDpiwRp0W4ayhcn1NJ4foMlOFIgARIIKwEthau7uH25U1TPiaTwvURJkORAAmQQJgJbBFuCn3scnx9RF888IOjA+OJMLPVdQ8MSD4WFPamxPqTAAmEncDWPdxm4R4TGE+EnW9gQFK4YW9KrD8JkEDYCVC4uc0ghZtbvoxOAiRAAqEhQOHmNlUUbm75MjoJkAAJhIYAhZvbVFG4ueXL6CRAAiQQGgIUbm5TReHmli+jkwAJkEBoCFC4uU0VhZtbvoxOAiRAAqEhkJ5pysjMNMW7lP1OHIXrN1HGIwESIIGQEqBwc5u4wAk3qWIwlIP+yXKMHVmAGy/9emDqmNtUMDoJkAAJ7FwC6SFlAxFJosRenZn4gs/h+pWVwMjMew73/WVIGnlQsNE/VY6xBxfgpsuOD0wd/YLOOCRAAiQQRALN13C1cItTq3H8AXoBegrXr1wFRmZauHPeX4aEisGEg36pcowbSeH6lWjGIQESIIEdEWgeUo5IAsWpcgp3R8C6+PfACTeJGJTa0sO9+fITAlPHLrLl5iRAAiQQKgIjbl0kLkxQuLlJW2Bk1tzDpXBzk2hGJQESIIEdEdj/1kWilAnLZQ93R6yy+TuFmw01liEBEiCBXkhA93CFws1ZZincnKFlYBIgARIIF4EDbl0sAgMmr+HmJHEUbk6wMigJkAAJhI9Ai3CRQHGSN035nUEK12+ijEcCJEACISXQLFwLSRQl+ViQ32mkcP0myngkQAIkEFICW3q4SRRTuL5nkcL1HSkDkgAJkEA4CYy4dbG4yvDuUi7hc7i+J5HC9R0pA5IACZBAOAmMmLJEXBiwnCaU2LyG63cWKVy/iTIeCZAACYSUwP5Tlgq2Em5fTu3oYy4pXB9hMhQJkAAJhJnA/lOWpIXrxlGSWsOpHX1OJoXrM1CGIwESIIGwEtjvlsWiDAXL1UPKa3D8iP7s4fqYTArXR5gMRQIkQAJhJrD3pAViWVYr4ZbigR8cHRhPhJmtrntgQHIu5bA3JdafBEgg7AT2uukLicZiMJ14podL4fqZUwrXT5qMRQIkQAIhJqCFmxeLwXAaUexdwy1jD9fHfFK4PsJkKBIgARIIM4G0cKOwnEYUpiooXJ+TSeH6DJThSIAESCCsBPa+ab7EYhEKN0cJpHBzBJZhSYAESCBsBPa5eb7EohGY7OHmJHUUbk6wMigJkAAJhI/APpkerr5pqjBZgeMP1NdwjwqMJ8JHdOsaBwYk71IOe1Ni/UmABMJOoHlI2XDiKKZwfU8nhes7UgYkARIggXAS2GPSQolFLG9IudhehxNGlOHBHxwRGE+Ek+qWWgcGJHu4YW9KrD8JkEDYCew+ebFEIyaU3Yi+zgacMLwfZlG4vqWVwvUNJQORAAmQQLgJ7D5psUSjJgy7AX3cjTh+eD/M/j57uH5llcL1iyTjkAAJkEDICex+8yKJxixPuCWecPvjoe8fHhhPhBwvp3YMewJZfxIgARLwi8Bu3l3KFpReLcitxNdHlOGR736NwvUJcGBA8hquTxllGBIgARLIksBuN34m0VgEhiRQKDX4+ogB+H+XHxQYT2R5WIEpFhiQFG5g2gQrQgIksIsS2O2GzyUvlgfTTSJPanH0QYPx68v2Downwp6WwICkcMPelFh/EiCBXBC4/69fSWM8gaZUCq5Kn7JV5mqgkfkZytiyawWICASAi/S/LS/9Ny+AjuB6cRSiSEoeFmxUWLouDkuZMMVBROowuJ+JkXuVwUjVwTQMiONCKZX+Xu9DxAuoa6V/3/Lyfi3e75Qy9O62/jscmIaNiAFM/vbBgfFQLvLXBn+ud9G5+BRu5zhxKxIggd5N4NrHlsvGuhSq6+uRFBfxJhuubSDl2BC42qZQMDLKdTMC3sp13g+ealVGt61l2Epv3rdiwkUETaoACRWD4QlUYEgSFmzkWy7ETmQkn47XLHzPts1Gb72Pdi3T2qsuoBwYShA1LRTELBTHDJQWRrHHoD64acwevVLCgTkoCrd3n0R4dCRAAh0TuPLXi6W8UrC+LoVGNwpbuXBNgamiXi9UxIZogWpXiVauNl3rr7bxm/+W/v1WPdBOJUNpt2dRLh08/VGg/Zf+MKBrpwwFQxkwXBfKdRFDEn0jDoYUORg+KIbbLx0ZGEd1CtkONgrMwVC4fqSTMUiABMJG4GePr5AvV9ejsiGJJteCLRZcWBADcJXAMExPsK64acnqPzQ/YOJZa6tB48zhby3b7Jh4A8VZFfX23jx8vVWE5rqK93dvaFtlxO4CljiIIYWIG0e+GcfQPiaO2H8wbhi7b3YVyar2uSsUmIOgcHOXZEYmARIIJoFzH5kvazbZiDsFMAx9OhbYyQQsfZ3U1KPHDlzX9n5vKt2r1d/p/09LVw8ue4PH25zJd65wm2lv+1EgPcyte7/6+rLrfX7Q13gjEFjQv7D0gLnu3btJRJ0GDIjZOHT3Atx/RfifB6Zwg/k+ZK1IgAR6OYEzZ34m6+pspHSP1tR3BqcAO4GYSiDiNqBPTGFQn3wMGlyKosIYIpY+XTtwvR6uke5CeuLdXj90+9L1RKjHi7f7yr5364Vu7mdvxzD677ZSaGxKoaauCRsqG7Gp2kbCiSCFKBwoOABM2IgpG4WoxkHDCvCrn4wOjLOyaZ6BqTx7uNmkj2VIgATCSOCEu+dLQwpIpgDX0Hf+uoi5cUSkEfsOKsITVx8dmHNzT/K96Zkq+XjxGqyvTcA2YhBl6gu9iKo4YqoGXxsSw69DLN3AJJXC7clmzX2RAAnsLAJnzfxMlte4UGYEriPIQxMidi0GFSQwd+qZgTkn7yw+er/XPb5cPv6qCpsaBbbKg2W6sFQcRVKNw/cpxUMhXVAhMMmlcHdm8+a+SYAEeoLAZY+ul4+/LEcyUgBDP+uqbBSkKjFiQB5+f91xgTkf9wSLzuzjzBlfyOpqF65+7hdJxBBHSTSBM4/cC5PO3id0vAJTYQq3M82P25AACYSZwOg7FkrcFiRtBwVGIyJOFQ4amI/fXndSYM7FQeP7rZmLZF1tAkn9KJRyEEES+xY34tmbTgkds8BUmMINWjNnfUiABPwkcN7D82XxBgtw9AxLDgqc9RhWlMCfbj0nMOdhP4/Xz1gnTZsvGxqBlKvv1gb6Yx2+dVAJ7pgQrmvdgUk0hetn82QsEiCBoBEYPeVDqVPFQEo/9mNjkFqHl++hbDuTpxue3SzzvtiImoTrPUZU6FRij8I6/PWW0wPjsM4cR2AqS+F2Jl3chgRIIIwELvxluSwq34CUEYMlCSinHkcOFTx6FYeSO5vPM2avkBUbG+AaUUTdOuRJJcYcPgS3fSc8czFTuJ3NNrcjARIggSwJHD99ieiZpPRED1HUIc+swYd3nBGY82+Wh9WjxX7yXK3849NVaEpFYCAFN1WLI4e6+N01x4eGY2Aqyh5uj7Zd7owESKAHCRw4dYHYroJyUrDMjRg80MXrV30zMOffHkTRrV2deP9Cqa7ylh5Cyk1ir+h6vHT7N0LDMTAVpXC71Q5ZmARIIKAEbpmzWZ76YAOUnsLQaYITq8DQ4QbKBjtISQVsw0VS6fV6FAy9MEFm/qiOJv/3pnX05iru6BTedqapzDSQ25lgquNIeim+7QP2lt/L1KX1NJPbTPPcWeNIelk/y4zAcBUMewAsZy+sXNiA+k35gETgwsUQrMYbd4fng0tnDz/nTZnCzTli7oAESGAnEPjR/30lb3xle70yUxJIFZRj76MLsMldhZrIRjgRA3E3hagyYbW27A7Ozno12+0vLrBlkYBtD7ljebaPSM97vH3jeosFZpbna3/Rgq6DN/VjQK6Ca7vo4wzAYHdf1KyMoK6iEHAj3v6GqHK8cWd4Hg+icLveDliCBEiABDpN4DsPfyyfbc73tjecJJziciy96Sw18uXfSlWkCrYhEFMvUSew9GT+InC1vwzDm+hf9xxbLS/far+6i9vmFK5aL4uX7uG2X3b71W8Wq9L1aN7MW2y+5Ydterutl8LtuGe+Y2zeGg6ZDxMKJgylkF9XjJHFh6N6uYV1y024qQhMU6HUXo6372UPd8dU22zBHm6XkbEACZBACAiMf+gjWVRdAEffMZVKAMWrsWTSueqIl34jG9VmmNGIJ1hDBCYUbHHhaFHq2ZVErxMrnnS2fbXfw017cUsPt6u9qpZ1c719ttOr9dac72jhg+4nxZO7Xh1JmZ7cI9UFWHLej9Xpf5gv5ctMuHYEWsx9k1/h3enf6uohdr+CWUYITEUp3CwzyGIkQAKBJjB29r9lUU0BlAtIKolowSp8fuu56vS//K9UuRuhLNNbqq6526h7trqXq7/0Anzeldr2hJteUHb7x+5dQO2aGNOdy/ReI5EISoqLvUXiW4fxFo/vWtgu58d2XaRSKW842YQBo74Qr5/3XXXO/82X1SsMJG3Lq1f/1HJceOwAXDXm0MC4rKODDUwlKdwut0kWIAESCAGBcQ99LIuqYhB9Q5SdQqG1Av++c2xgzr0hQNhSxe89tVI+WdCIhGN5nzX62ytw4egBmDiWwu1SHincLuHixiRAAiEhMO6hT2RRZUa4TgqlWI5376Vws0nfxKcq5K0FtYg7ptd7L9PCPXoAJp53WCg+wASmkhRuNs2PZUiABIJOYOzsT2RxVV66h+ukMMj+Cm/OHBeYc2/Q+bWu33VPVMjri+vQYOvru0BZagUuPIbC7XIOKdwuI2MBEiCBEBDQwl1YlQdDP1uaSmKg8yXenDmews0id9f+sULeWFSHhpS+fxko1T1cCrfrJCncrjNjCRIggeAT0MJdUBnzbv5BMoFBru7hUrjZZO7qJ9fIvEV1aLQNT7h6SPmC0WWYOP7wUHyACUwlKdxsmh/LkAAJBJ3AmNkfy8LKPFjKhNsUx2BZRuFmmbRrnlgjbyxuK9xSTBx/RGBc1tGhBaaSFG6WLZDFSIAEAk2gWbgRw4Idb8BQWYF5vIabVc7Swq1Ho50eUk73cCncLsOkcLuMjAVIgARCQEALd8HmGKJmhMLtZr7SQ8oNGeGm71KmcLOASuFmAY1FSIAEAk+gWbgxK4pUQx2GYiV7uFlmbeITWrj1aLINGIrCzRIjQOFmjY4FSYAEAkyAwvUvORMfXyPzFm8t3AuPLcNV43jTVJcoU7hdwsWNSYAEQkJg7OyPZT6HlH3J1sRVICbbAAAgAElEQVTHK2Sed9OUgqWfw9WPBVG4XWdL4XadGUuQAAkEnwCF61+OmoWrh5S1cPvbei5l9nC7TJjC7TIyFiABEggBgTGzPpIFlXnQdynrx4KGYDnmzeBMU9mkbuITFd5zuAnHhKkEpanluIDC7TpKCrfrzFiCBEgg+ATGzPrYm/hCP4erJ77Qz+FSuNnlbeKTa+VNb+ILhaju4XrCHYCrxnEu5S4RpXC7hIsbkwAJhIRAWrhRmHquKTuFwe5XeIM93Kyyp3u4by7WjwUBEeWiNKUfCxqEq8ZztaAuAaVwu4SLG5MACYSEwLkPfiQLq/TUjhRud1M28Ym1GeEKIspB/9QqXDB6MCaO/1pgJnHq6BgDU0kKt7tNkeVJgASCSKBZuEoMRFwHg5wv2cPNMlFXaeF6z+EClmF7wr3w2KG4atyowLiMws0yuSxGAiRAAt0lQOF2l+CW8lc9uVbe8IQriGZ6uBRuFnzZw80CGouQAAkEngCF61+KJj65Tl73hOsiqtI93AuOHYaJ7OF2DTKF2zVe3JoESCAcBChc//LULNxERrj9KNzs4FK42XFjKRIggWAToHD9y09r4UaQQn97NXu42eClcLOhxjIkQAJBJ0Dh+pchCtcnlhSuTyAZhgRIIFAEKFz/0kHh+sSSwvUJJMOQAAkEigCF6186KFyfWFK4PoFkGBIggUARoHD9SweF6xNLCtcnkAxDAiQQKAIUrn/p0DNNvb64HglbwJumusGVwu0GPBYlARIILAEK17/UtBVuqVOO848dioljOdNUlyhTuF3CxY1JgARCQoDC9S9RVz+5Vl5bVOfNNBWBDS3cCyjcrgOmcLvOjCVIgASCT4DC9S9HnnAX1iLpAKakUCZrcP5o9nC7TJjC7TIyFiABEggBAQrXvyRd88d18vqCGiQcwJAkBqIC3z56MCaOO4SLF3QFM4XbFVrclgRIICwEKFz/MnXtU+vltfnVSDgCQ1Jp4erl+cZQuF2iTOF2CRc3JgESCAkBCte/RF371Dp59YsqJF3AcFMYqNZSuNngpXCzocYyJEACQSdA4fqXoeueWi+vflGJREa4g4x1OE8PKY/lAvRdokzhdgkXNyYBEggJAQrXv0Rd/8f18ur8SjR513BToHCzZEvhZgmOxUiABAJNgML1Lz3NwtU3TSkKN3uwFG727FiSBEgguAQoXP9yQ+H6xJLC9Qkkw5AACQSKAIXrXzooXJ9YUrg+gWQYEiCBQBGgcP1LB4XrE0sK1yeQDEMCJBAoAhSuf+mgcH1iSeH6BJJhSIAEAkWAwvUvHRSuTywpXJ9AMgwJkECgCFC4/qWDwvWJJYXrE0iGIQESCBQBCte/dFC4PrGkcH0CyTAkQAKBIkDh+pcOCtcnlhSuTyAZhgRIIFAEKFz/0kHh+sSSwvUJJMOQAAkEigCF6186KFyfWFK4PoFkGBIggUARoHD9SweF6xNLCtcnkAxDAiQQKAIUrn/poHB9Yknh+gSSYUiABAJFgML1Lx0Urk8sKVyfQDIMCZBAoAhQuP6lg8L1iSWF6xNIhiEBEggUAQrXv3RQuD6xpHB9AskwJEACgSJA4fqXDgrXJ5YUrk8gGYYESCBQBChc/9JB4frEksL1CSTDkAAJBIoAhetfOihcn1hSuD6BZBgSIIFAETj3wY9lYVUUSgxEXAeDnC/xxoxxKlCVDEllKFyfEjVpbp3MeX8ZksiDUjb6pcox7uBC3Hz58WyYPjFmGBIggZ4nsLVwXQxyllK4WaaBws0SXNtik+fWyl/fX46EyoMJG31TazD24EJMuvzrFK5PjBmGBEig5wmMmfWxLKiMQYlCxKVwu5MBCrc79FqVnTynVv76wYpWwi3HmIOLMPny4yhcnxgzDAmQQM8TGDPrE1lQ2TykrIW7hD3cLNNA4WYJrm2xW+bWynPvr0BS5cHyerjlGDOyCJMvo3B9QswwJEACO4FAs3BNmDAdfQ2Xws02DRRutuTalLv1hVr5y3sr0NQi3DU4d2QRbrnsWPZwfWLMMCRAAj1PIC3ciNYtTKd5SHksz2tZpILCzQJae0WmvFgrz73bSrh2RriXUrg+IWYYEiCBnUAgfQ1XC9eC6Uimh0vhZpMKCjcbau2UmfpSnfzpHX3TVD4iSKGvXYFzRhXj1kuO4SdBnxgzDAmQQM8TGDv7E5lfacEUCre79Cnc7hLMlL/jb3Xy1Nvpm6aisFFiV+DsUX1w2yVHUrg+MWYYEiCBnieghat7uIboIWX2cLuTAQq3O/TalD3o1s8lgTxEVVq4Z43sg6kUro+EGYoESKCnCWwRrgXTFgxy9U1TY9iRyCIRFG4W0LZXRAu3CXmIKccT7pkjS3A7hesjYYYiARLoaQLNwjUlAsMT7mIKN8skULhZgmuv2EG3fpERru7hrsEZI/vgDgrXR8IMRQIk0NMEWoSLCIwUhdsd/hRud+htM6T8hSSQj6hKoTgj3DspXB8JMxQJkEBPExj70KeyYLMFk8LtNnoKt9sI0wHueqlanny3HAlVgCiSKE6twekj++CuS3nTlE+IGYYESGAnEBj30GeycLMJReF2mz6F222ErYT73hrvsaCoJFGUEe7dFK5PhBmGBEhgZxBoFq4hEZgOMMBZxGu4WSaCws0SXNtid75YJX/8oAJNqgB5bhKFyTU47Wt9MP2SI3g3n0+MGYYESKDnCXz7l4vkswoXFiLeXcoDXAo32yxQuNmSa1Pujhc3y1MfrEPSKETUSaLArsDoA2L4r+9ypimfEDMMCZDATiBw5iOfydL1FiIqgojXw12I1/hYUFaZoHCzwrZtIS3cP32wHk1GIZQkIEYFBg6rxW57AE9/i8+s+YSZYUiABHqIwMVvvypIDsMXH21GvL4UlmMi4gKlzkLMm8GpHbNJA4WbDbV2ymjhPvvBejSaRXDQhHisAskBFYgOqIVVWA2xBK6KwIUeYXYhgPedoTIjzvoXfIWbQAcXD9zmI5NtEy3t/C7cIFj7MBHQbVOfh1wRGJmKK8OAVdcf/ZJ7oeorA7HaQbBsA1Gl0N9eiDenU7jZ5JjCzYZaO2Vun7tJnvtwPeJmIVxJIB5bi0TZalgDamGU1AKmC0PFIMqAaN3qk6xKS5ev3k+gWbP6pMYXCQSJgP7ApwUrotWr0h0BLdzafihu2gM1XxqI1g7WV3BhGQr9k/Px9vTxPHVlkcTrn1wnr86vRMIFlKQwyFiH8UcNxtXjDgkFz8BUUgv32Q/Xocksgusm0JS3FonSVTDLamCU1MGIKFgqBoiCA4HyTryZL56Ds2i6wSvi9WI7aJG699DS021TfTcwLTl4XFmj3BLQ5yKlOwLiQjIjbmZGuH1Te6P6SwNm7SAY+j/XRZmzAO9MO48tNou0ULhZQGuvyO1zN8tzH65F3CiCSAKOVQGrbzmKBzQgr6AWSjkwdQ8XBmyvj5uWrdLf6Q6v9zNfvZKASn+0Svcdtn15mefpq1emPgwHpXu4zUPKXjNUCkp/NfZHH+MArFycQLJhIEwjAgMuBtoL8Na97OFmk1sKNxtq7ZRpEa4q9IRrqArst08SL3z3DJ5KfWLMMCRAAj1P4LRffCbL11qwzCiUY2OQsxBvTaNws8kEhZsNtfaE+8Jmee6DNWhUBYCkUOisxamHFuPBC46icH1izDAkQAI9T+CsX3whi9caMA0LytbCXYK3ZozjeS2LVFz35Fp5TV/DdQBDUhhgrMd5xwzC1WMPDQXPwFTyjhcr5dn3y9EILVwb/e21GDuyDyZfenhg6phF+2AREiCBXZzAubM/8+ZSVtDL8zkY4i7hY0FZtgkKN0twbYt5wn2vHI0qHwIHpan1GDeqGJMuoXB9QswwJEACO4HAObM/lQWbLBhauI6LIe5SzOPEF1llgsLNCtu2hdLCXY0GPaSshWuvx/iRJbj5ksPYw/WJMcOQAAn0PIGzZ38qi7RwVQRmysFg3cOdyedws8kEhZsNtfau4b5YJc+9t2qLcFPrMX5UMW5mD9cnwgxDAiSwMwh4wt0cgQULKuVgkLsEb1K4WaWCws0K27aFbtfCfX8lGvQ1XAhKU+soXJ/YMgwJkMDOI3D27E9k0eYohetDCihcHyDqEFNfqJTn3l+FBuSnhWuv84aUJ/GmKZ8IMwwJkMDOIHD2g5/IwsooDJjeTVN6SPnNmbxLOZtcXPdEhby6oMq7S7n1TFPXjOddyl3iSeF2CRc3JgESCAmBsx74WBZVxbyZptI3Tem7lCncbNJH4WZDrZ0yFK5PIBmGBEggUARaC9fK3KX8BlcLyipHFG5W2LYtROH6BJJhdhqBWbNmSWNjIxzH8ab2KygowJAhQzBhwgTeab/TsrLzd7xFuCbSwl0CCje7vFC42XHbptRUPZfyB/oabvNNU2vT13AvO4InK58YM0xuCEyfPl02bdqEVCoF13XRvFygXjEmEomgtLQUkydPZjvODf7ARz3rgY/SQ8piwXIcDHWX4HVew80qb9c+vkZea+8a7nnheHw0MCeBtsLtn1qL80YWY9JlRwamjlm1EBbq1QSmTJki1dXVLZLVB6t7t94rs6iGFnCfPn1w7733si336tbQ/sFp4S6uyoOSdA93qLuYws2yHVC4WYJrW+x2b+KLdA9XrwDUL1mB8SOLMflyCtcnxAzjM4Hbb79dNm7cCNM0vWFkb9UYw/B+1j1d/Tv9vf7Svd/+/fvjrrvuonR9zkPQw53t9XCbhSsY6i6icLNMGoWbJbj2ih1626dS7+Z7y1v1TZRj7EFFmPI9Ll7gI2KG8onAb37zG/n000+9aLZte9drDzjgAFx55ZUtQv3d734nCxYsQF1dnSdd/dp3331xzTXXULo+5SEMYTzhVsegXD2krIWre7icaSqb3FG42VDbTpnDbvtU6rRwAZQkynHWAQW4+4ejeXLykTFD+UPgtttu867b6h5tfn4+7rvvvu2201tuucUbdtY9Xn0995577mGb9icNoYhy5n3/lMU1+hpuBJYDDBHeNJVt4q59vLzlGq5eLWigsQ7jjh6Ma8eHY879QL3xj5j6idQ6+d6C8iXJdfjm8DzMuPKYQNUx24bCcr2LwMSJE6V5yHi//fbDxIkTt9tOm3vDevtoNIojjjgCl112Gdt172oS2z2aM+/7UJbURKEkCstRGCZL8BofC8oq+xRuVtjaL3TyjMVSUesCMFCQ2oDhRbV4+razeWLykTFDdZ/A448/Lu+++y4sy/IEevjhh+/w0Z+bbrpJ9NCy7hEfeOCB+OlPf8p23f1UhCLCmTP/4QkXEkXEMTEEuoc7hvnPInsUbhbQtlfkzIe+kmXr4xBlIc+uwiCswyszxrNh+siYobpP4LHHHpN33nmnRbjHHHMMLrzwwg7b6Y033ii1tbXetVwt3J/97Gds191PRSginDHjA1laG4UhMZiOlRHuucx/FtmjcLOAtr0i5/9ymXyxqhaOiiDmNqDE3YjzT9wf15wznI3TR84M1T0CTz31lMybN8/rreqvUaNG4Uc/+tF22+jTTz8t7733HpLJpCfpgw8+GD/+8Y/ZpruXhtCUPmPGe2nhulq4EQzGUsybSeFmk8BrHiuX1xdUenMp62u4A4z1GH/0IFx7XjjmawjUm/7Kx9bIhws3oMmNIKKSyHcrccrBpZh5WTgeas6mAbFMOAlcd911kkgkvEeB9OM+d99993bfS9OmTZPy8nJvWz0EPXr0aFx00UWBeu+FMwvhqPWZM96TL+tigBOFYVuecN+8j0PK2WSPws2G2nbK3P5Sjbz84XJUNpkwDEHMqcHBgwWPXXMiT04+cmao7hOYMWOGrFixwuux6l6unsLx5ptv3qadPvDAA7J8+XJPtvpL36XMZ3G7zz9MEbYSbkr3cJfgzfsp3GxySOFmQ62DMmfct0BWbLahTAOmW48ycxPm3X0OheszZ4brPoGrr77a6+U2T3aRl5eHoqIirxerJ7rQN0k1NTV5k2Dol5azHn6+4oor2J67jz80EbYINwYjlenh3s8h5WwSSOFmQ62DMpf8zzL5ZFktHMOCQhNKnPU482sDcfslnADDZ9QM100CjzzyiCxatMibylFPftEs3uberA7fel7loUOHck7lbjIPY/Ezp7+bHlJ2Y+khZVnKHm6WibzmD6vl9YVbX8Mdd9QgXPftcMxIGLhP2jc+s15e+3gNGlwLUC4K3SrsWxLH05PPClxds2wzLNaLCGjpLl26NL1CkDcpqTeBcvpfwOvdahHvvffeuOGGG9iGe1HuO3soFG5nSe14Owp3x4y6vMXp0z6VNTUp2EYUUWlECSpx6qhhuHPCITxhdZkmC/QEgeZ5lbVgdY+3+atv374d3lDVE3XjPnYuAQrXP/4Urn8sWyL97LFV8u4X5YirQphwEJNGDMtvxJyp36Jwc8CbIUmABHJHgML1jy2F6x/LrSKdce+/pLwWcIwITHEQSW7GqKEx/P563rGcI+QMSwIkkAMCFK5/UClc/1huFen6J8vlrS8qUC9ROGIiT5qQb2/CCQcNwP0/CMcF8hyhYVgSIIEQEaBw/UsWhesfy20ijZ/1uXy5Lo6kyodSLqJuE4rsdTj1kKG4+3LetZxD9AxNAiTgE4EW4TqRLRNf3D+Ol8ey4Hv1H1Z5M00lvZmmbAww1mHsUYNw/XfC4YPAJ/2UO/8l6+oBMaNQSlDo1qMEG3HSqN0w9RL2dLNosyxCAiTQgwTOnPaufFmvZ5rSwjUxGF/iTQo3qwxQuFlh63yhm55ZI/M+q0Bd0oADAxGkELPrUIJqHHfwMNzzfa6X23ma3JIESKCnCZw9431ZWhsB3CgMx8BAZyneeoCLsmSTBwo3G2pdLHPVk6vlH/PLUWtHYEDBdG3kST1iTjUO2q0P/ue6bwS+p97FQ+bmJEACvYTAOTPel8U1EW89XMNRGeGex3NWFvmlcLOAlk2R//zdEvn30hrEHdObUkCJ7fV2LbsWg4st/HXqN9mAswHLMiRAAjklMGbGu7KwOk9P7omICwxIfok3Z32b56ssqF/9+5Xy+sKqltWCBhrreQ03C46dKnLlo0vl0y83oBFRuNDiVVB2EyynEf3MBhyyWxEevvpUNuRO0eRGJEACPUFgzMwPZGFVFAZMmK6gLLEUb80+n+epLOBTuFlA606Rn/3fQvlwSSUa3AhcpYeYAQMuIm4Tok4j8s0k9hrcD/977XFs0N0BzbIkQAK+EDj3/o9l8WYdSitXMKBpKd6aReFmA5fCzYZaN8vc8vw6eeejJahNWLBVFK6yoETfJu7CcpOwkEBEJRA1UxhYEsM+Q0sx7XKuqdtN7CxOAiSQBYFvTftcltem59pOC3cJ3pp1ATsEWbCkcLOA5leRbz/4oZRvTqDJKIbtAK7tej1eS+m1R10IHJhKf7npfw39GRNb5rrVq7noynSm6afnot/qpYt1urxfB93L4ziSBi22DdtxevnRZnd4Sq/219IeO268zasVbdN2FaBMgdL/enM/ex2w9L+t3iP6e9MwvW283xudebO02pt0cfvskASylOsacJKCBomhXvJgmgqm2OgbX4R3Zl2864LpRrYm/m6FvNHqGu6AzDXcn59/dCh4hqKSHeXn1mfL5f35K1DdIEipPLhiQsSAKP0YkUL6/Z45O+mTeXuG7AyFdoTbUq/OlO9GI9sli3bEuxcCaeslr0l5ktMgvNsEM0etvNGczrw8SeqF77e7savvPvQ+nKZf6S2b5dpesY7+1v5udL279wbZ3oeGzjDo7jZdP94te7T0lLSujYRrwI7kwTIEhqTQp3ER3p01oXtQuntgIS1P4QYkcdc+sVQ+W1GD2iYDcVvBlvTVXVufS9Jnr8yJRN9q1foTePr7HbX+7fZkZcdlA4IoVNXYmSfZnQHK95GSTLvMDBi0HNKWjrHu3W4Rur+SbUtwR++u7RNvXu5wZ+Sk+cSgh4KzeXlnIBGkNHTDgGm4MCWBvvEleOdBCjcbphRuNtRyXOY7sz+VDZurkbQNpPSnS2XB0b1e6K9ML1d/+PceL+p8ZbbdNDPM1vkQndyyuSfeyc17y2aZnDi616UAR//cagjT1BLRnTLv/vTe9eq4GbZ3PWPHGtASFXfbHq5m6/WbjS0jQKYm6rqw9I09HuPMNrqHnIG9/Q9BO8rGjv6+/Vxu6envpHx3OELQcZ2UnjVAmUi6gBGNQenHGKUJ/eNL8RaFm1VCKdyssPVModkvlMtX5RuwtrIWdQlB3AYcV9/TrOB1gDt6uVtOEvpE452gmq8v6uvDXu+g+Uzkz/G07FHvT/QJtXmor/PxvVNz626NvkbXSk/b9Bj09btW4f3+e9ue0zYn7eYTmq6nZXhVTxiCpOEirlw4EQOWYcIwFCxbENFfus6yrXS3vqzZhU9Sncebsy07qm3Wvf2WkejMB0NJC1Z/2QbgmAopceGKi4goREWhwDFQ6Jpe23ZdBzbEa4WiBKrNuLfS7yHvdx0JNVx58DPBSkUhKooNtXFEi8v0eBssN47+ia/wFq/hZoV64u+Wb3sN98hB+PkFx2T/qS6rmmRXKBSVzO7Qcl9q+ovrM37z6aSSCbPlal1zXJ/i5x5Jl/bgfZDJHKxhGLjprCEt7XHcXz6RBWuWIW4BMVPPQSvokwAOLBuGgcV9YDc0wTCbRbJlt+G9R6eDHLcdF26HcntXar1i+sOJoT+gpG+McgxAYiaq3BQWbViDqkQ9mgwg5ggKxcJhA/bC/13EO/q71JA72HjqS/Xyyj++wqZkDIY4MJxGlKW0cC/iuTcLyBRuFtBYhAQ6Q2D4kw9LU0keCl0FqW/CkXmD8Nh4Pk7RGXad2ebCt+fK5+tWoS5PIZYS5CUcfHHxVRRBZ+B1YZuzZ3wuS2ss6EsikmjEQPcrvDWb7bgLCFs2pXCzocYyJNAJAns+c5fY/QpREHdQ2OjiG2X74v5Tv0MhdIJdZzc58LlpUl1kImoDVkMCJ+UNw2/P+QEZdxZgJ7Y7Z/qHsqS2EKZScOONGOQuo3A7wa29TSjcLMGxGAl0ROCkt38tX1auB4rzUdSgn10E/nHBTRSBz83m0LkzZG2eA8sRWAkHh8SL8NcLryNnHzmfPf1tWVRXpCd2hNsUxzBZhTcf5ExT2SCmcLOhxjIksAMCI1+ZJTV2HJIfQ1FlHHuiCH8/7xqKwOeWc/LfH5KFqIeln1yxBfvWmJg3YRI5+8j57Glvy5L6In1bOJxkHMOwGm/fT+Fmg3ji75fLGwv04gV6EpEkylR6AfqfXxCOZVr5xsom6yyTcwJ7vHCPuJYCohZK1jfgsMIhePzc/2B79Zn8xe88Lu/WrPJuXtN3lA+sdHDa4BGYcRqH7v1Cfe6978ji2kLvyQZPuGYF3p7J1YKy4fuz3y2TeQuqvMc9LTeFUqzFuUcPwA0XhmPufJ7Assk6y+SUwIXv/k7eqloJK6YfqwD6VzTg9CEH4r5vcrKAXIDf94XpktTPPhsK/WpsjMobiCfG/ojnBp9gn3PPu7KkrsB7vMqx4+gXWYOPprGHmw3eH/xhqfxjfi1sx/Bm8eova3D2UWW46eLjQ9FeQ1HJbBLDMuElcPKLs2WRqoNlmt7sC3ttsPHOZbexreYopQe+fJ802EnvkaE+jYLBTgyvn38DefvE+5x735PFNflw4cJ2mhArqsCS289Xx//5l9JY0OhNxuO2POOvn8FPPyKmf+89Oqd/1tmQzDPR6YcRW82nvZ2KpmcNaZkfu2Wr5tl+OvkMndF6zoHmR6/TU2+n42cmSUnPGqCf187Ur221OnjyzXuaO/N3QwDTEZiOC8MF8iImjHgf7FN2JFYvB1avtiApE1HXQT8px5lH9sOkCSeGor2GopI+tXuGCQmBQ/86TTYUCJTtIioG9t8kePmyW9hWc5S/w16fJZubGpDSwk0pFCeBf36bvP3Cfe6092RRTZ43eY7u4ariCiyber4a/ufZUlPUkJ7Luq2M2iwWoaXX9WlwtncEWuBa2DuatCRdPl2Vtm+/zAeBlqkCmp8E38GcAa3/3GbSHS3azB5haemKvk4rUK6LvKY+GDXgWKxd4qJipQUkTUTERX93Nc4+sh9upnD9aq6Ms6sRGPHivVJnCUzbRaGycGhdHv54wbUUbo4awskf/FpWVq5HQgnyHYVY0sXpffbGrNMuI3MfmI+Z8a4srIylr+HaTUDRGiy//QI14i//JbWFddDrmsHN0eQ2zcs/tRyHN2dei9i2N0tY24n4Ws8Yp0vrHrkWYVc+BOxocr9m2ep/9UR/KW/CFt3LdVES74PDykZj/SIXG5ZbEDvi3ejX31mFcw8twc2XnRyKthqKSvrQ5hkiJAS+/u6vZF1DNRrcFApTQLFYOL1wT8w4jddvc5nCEXPvkYYoYNkuIjZweKoYT32bd4X7wXzs9HdkflXUWw3XtRMwCyqw5K7vqMP/9Aupi9V402a2fXVljveu1bEj4W4Zpk4LNjOT23Z7uJlNWs033SKUNr3XztaxeQrd9HSierhar7DkIhbvi5Flx2L9V4K1yw04tp7uFShNrcS4w4px42WnhsJloahkZ5PF7cJPYL9XZkqTayOpr88kFfo3Ct6/eArbaY5Te+icabIp5kIP6+mT/f6bXLx6Kbn7gX38zHfk800WDGVBpZKI5K3FF/d+W437y2PSGK3yru22fnlrdus8KAXD0PNa68u36W38EXGzdLceUvZ6rq4L0YtYWBaUNlrL2sjNNWx+K+oh5cyodLqCWx1Dp/rr7Wzkrc+sRS8KhjI85StxoOJ98dz4CeqsX34qK1c6SNkGlKlQmlqGC47uj2suOikU54hQVNKPRs8Y4SCwx9+niQPxJs0f3KgwoMbFq9+7le00x+k78aUHZKlqBPTqTALsvSGF9y67g9x94D5h9gfyzwotEAum48BSK3HGKXtg5lnhmHDfBwS+hRj3i4WyZGWjt/qbvpkpnrMAACAASURBVGtLC/e9B8PziBXfUL41BQbyg8Aef7tX9LJ8+rrWbrXAiFQhHpvAoU0/2HYU49tvPyrvNayBa6Zvztl9o41T++6N+8/6Hs8R3YT/k0e/kDcWxyFieL21vOQynHBICR7+4Vlk20W2Yx9cIkvW1MI1Te9j+UBnOd55IDzzUjPhXUw4N88dgdNf+YUsdGq8Gyb0oxB7Vgneu5i929wR3zry7q9Mk4STgpgGBlfZOMgtwVMXcZrH7vKf8uxK+cs/NyBl60+SDgrstRg+2MAfJ40J5Pn3iceelAmXXhzIup1216eyuiYJ0zTg2nHsGV2Hl6eFZ5KWQELtbgNn+XASOGrufbLOSLRcO9p3M/DGJZPZRnsonfu+OlMakglvXeK+dQ6GNFl4nfx9oX/klH9LQ8KBuII8pwb981J4fdrZgWrbzzz9Z5n35jykUjaKiovwwAP3Bap+t/xls7zyz6WoSuk1sgVI1uGgfk3485RzAlXPjhpMaCrqS6tnkEATGDl3ulSrJKJmFIYrOLDGwpyLOQFDTyXt0NdmS2Wi3nsco08S6BMX/ONCjjD4wf+s+z+RVesbkVQxRJw4ChHHKQcWY8YVwZkD+KGHHpbPv5iPSCTi3bB19NFH43vfDc6jYec/vFgWrN6MpGEhJgnk21U45eBSzPzh10PjsdBU1I9GzxjBJrD/i9OkwbVRYFiI2oLRTn/8djznT+6prH3rH/8rX22sQNwEivTzuAkXoyMD8esxnOaxuzm44elyeeXDJagz+sNwU8hHCrvlVeLFu4PTO5s+faYsXrrEu0NZ98SPOWY0rrzi+4FwxJTn18jLH61FVTx9t3ahVGGgWYu/Tw/XFJmBgNndxszy4SdwxJv/JZXxOqQcB0WOgcIk8O/vcDi5pzN74PP3SHUMiLnwlus7uCkfz3OUwZc0nHb7W7KysdB7xCcCFyWyGYfuWYL/uSoY8wA/+tv/k39++CFccZGfX4BjR4/GRRcF44akM6Z/KKsrHaTEgKFcFNvrceSwKH55fbhuPKNwfXkrMUh3CXjP3zq29wxgaUKhJC54ZwKHM7vLtavlD5szQ9bp53H1PLa2i/1rTV7H7SrE7Wx/9WNfykufb4YtCuLYKFQOCtw4TjuoL6ZdcXQgzsWPPPILqampwaBBg3DllT8MRJ3GPLxIlpVXw3EBZQhcN4XdI1V4ZdrYQNSvK80jdBXuysFx2/AQ2PPv0ySpp3EDMLAe2C0ZwZwJN7J99nAKT/nbQ7JINXh71bnYu9LFO7xT3LcsnD7zM1m1oQ5JicKAjQgclBqbcdzwUsy4Mhg9Xd8O1odA42f9S5auSyLhmjBhIIomRFGLE4aXYtaVwbn+3dlD5Qmts6S4Xc4IXPzu7+XtunLYcL2ZZXavERwdG4L/GncF22fOqLcf+OL3HpPX61fC0XPlKoW9q1wcrvrjVxf8lLnwKRfHTnpPqlP6Kq4LR1LINxIoMOI4dLdC/OaqE8gZwJ0vrJd5n6/GuqqEN4zsigFLRZHvVOLAwcCTN5wWSk6hrLRP7Z5hAkLg5L/NlqVSDyfTq9q3UvD2JZxWcGelZ7e/3+uNNuhrjUMbFPZqsPD8dyfxXOFTQm58YrXM+7gcjTDQYDuIWAoWbBS51ditWGG/3Uox84pjd1ne3/3FJ7J4TRVqk1G4RsT78BdRDkwniaFFCfz9jtNDyya0Ffep7TNMAAgcNnembDBT3mQXhggO2mzg5cu5PNzOSs0+f58uja4NBy4GxRVKG4E3Oa+yr+m4/rEK+WD+ClTZEdjeerd6ubkEIhJHVDnIj7gYXFaK4fvtiahpYMo5Zb3yXH33S1WSaLJR3ZBExcZ6rKusR00TkHAyawDDhWUoRKUB/QttnDxqMKZ+Z2RoWYS24r62fgbbqQQOmjNN6ix9o47AsB0cES/CMxdfz7a5k7JyxOuzZVO8DnFD0CepUJIEzuyzL+7+Flds8jMlU/60Sj74fDU21NlIGIXeyjh6Yk0TSShJeNfQ9ZtA/6uXMNAjDvpDqR7q1//qhQb0980r8G1ZQi+zOIHS8VqvDtSm9nqhAF3YW+Q+/Tdv4QAl3lK5Su85PbX2ln10sCrB1usXbNmweaXcdFAFR980JvpIDUDPiayPWumr2ZbWKxzDhNLHqafBVAnkqwYMLgG+/rU98PNxB4f6vBDqyvvZ+Blr5xHY74V7Ra/Fqp+9jaRcfDM2DI+cE4w7JHcelZ275/3m3CW1luutj1vgAEfFi/H7i7gmcS6yct7Mj+WrzUBT0tG34UIMG1bEBVwtJC2f9FSn+g7+ZuGm5bqdFWYzSwqlT+7Nwm3PlFrWWsnNy/Jl9JyRrL6jonlFIK+0t2D91q/m32y1L0nXTC872FzD5u30RwAvlMC7hOTJ3JO8/jJgeMvx6S8HSmwMKIjjoIEG/t/EU3qFq3rFQeTiTcCYPUPg8NcfksqmeugFCwoSgsImFx9ddBvbZc/g3+5eDnr+LtkQcxEThZgNjKqy8PzlfC46V2m54fGvZEn5Zqzd3IhEyoWrDNhGFI4Z0yt5tIhLr1PvLd2nF2fPrFmrJ6lo/dJebOlVtvyhvbXw0rJLyzStvkw31yvf3GPtaKm9HS0X2Cpqi/6bjav7uPoQTK83ne7dR5CCJQkUmk3Ye2AxRu5Vhhu+Hd4h5O19QMlVO2JcEuiQwPC/Tfdml9Inib5xQVkj8BavF+70VnP48/fKqnwbEVfBsgUHVht4+VI+F53rxNzw5FIpX1uLTdUONiUcNFoxiL6eqb/Sq8NuU4XWPdT2OqKdWps2E3XbXvGWIekdy3XrunkD2pmde1G8ofD0jkw43iNRhh5YVoKIISjIU+ibrzCkxMRe/RWmXBy+x3521D7Yk9gRIf49pwT2fvEebzhZf0gfUi8YLkV46kIOXeYUeieCf+uVh+VTtya9IL0r2LfWwIkle+Cesy7nOaMT/PzYZOpTi6Uu6SCVSiGVSGU6nwqufrN4C9I3D8+2VqryPrxu+U3bn7dfM5UZMk4rVvdwM1+Z/nLz37fptbXTIrxh4tbXfr0fm3vQeqhZ3wwF7ysaMVGQF0Hfonz8fMzwXt2+evXB+dHoGSN3BC6Y97/yfsMaOIY3aoY9qwWn9t8H006/hO0yd9g7HXnYS3dJ81KJw+qB/d0i/PFCLtfXaYDckATaEOCJjU1ipxE46aWHZKlb690woXtSe1cpvH0pHwfaaQlps+O9XrhLUgZgG0Bpg4vBTSZe53SbQUkP6xFCAhRuCJPWW6p86AszZS2aEBEFywWG15h4+TLemBOU/B4w9x6JKwcJvXpQk4u+KQP/Op83tAUlP6xH+AhQuOHLWa+p8QFzp0m1SiHPNbxHgg5LFuOpC69hmwxIhk984xEpr69CfQTIT7oocQx8I7obZp39A+YoIDliNcJFgG+ccOWr19T2lHf+W1ZVbULc0M96AoUphW/02RsPfoPXb4OU5P2fv0Nq8hSspItCMXBEQwH+ePHPed4IUpJYl9AQ4BsnNKnqXRU9/NVZsjFeDzEUihKC/gmF97gqTeCSPOq5u2R9vsC0XeSLgeHVJv52Ga+zBy5RrFAoCFC4oUhT76vkiL/PlLpUHIZS6Fcv2C0ZxUuXcYL8oGX6uDkzZZkVh55cIQqFfar0vMpTed4IWqJYn1AQ4BsnFGnqfZXc44V7JCW292TeoBrB16z++N2FE9keA5bq8fP+R/7RuDa9YgsUhtUCR+YNwi/G/wdzFbBcsTrBJ8A3TfBz1OtqeM6rv5KPmjbA8eZNBfasAc4cfCCmfuMCtscAZnu3F+6QlJ56z1AYUgvs4+TjzxNuZK4CmCtWKdgE+KYJdn56Ze2Om/uALFP1UC4QsQX7x2N4bQKHk4Oa7P1euMebftOx9FJ9goEJhTcn8PGgoOaL9QouAQo3uLnptTUb+ezdsinmenP0WgkbR6hS/Pl8Pg4U1IQf9dpDUlFXiWTMSj+PmxR8fOHtPHcENWGsV2AJ8E0T2NT03ort+cxUSRRYiCZd5MVtnFC0Bx4990q2xQCnfPdnbpOmwoj3PG5h0sVJ0aH41dgfM2cBzhmrFjwCfMMELye9ukanvvdrWbS+HE7MRH6Ti5KE4OxBB2HaqReyLQY48/v86TapK7IQsV3EbMERiSI8c9ENzFmAc8aqBY8A3zDBy0mvrtHXXn5ANjfVe2trFzQ6GCwxvHshn+sMetJHPXuPVMRsRDPX3Q+oj3IazqAnjfULHAEKN3Ap6d0V2vuFeyXh2t4CYCV1NvaN9sML3+EKNEHP+ikvPyyfNG1CvhmBYbvYq1bhnct441TQ88b6BYsAhRusfPT62uw25y5x9eNAAPpXp3BEyTD871g+0xmGxJc+d6vkxfIgjoOhtYIji4bhV2N57T0MuWMdg0GAwg1GHnaJWpz7+n/LvxrWeZNdWA4wpM7FN4cehLtP4/XbMDSAoc9OFYmacMXFwAZgP1WC57g+bhhSxzoGhACFG5BE7ArVOGbOfbIKjd6hGq6gJAkM7zMEz3+Ld7uGIf/Dnr9TXLjQn5iKbYVSJ4L3z+dyimHIHesYDAIUbjDysEvU4sA/3ynVMYHjujAF3sQXllKAYcDNtETl9X8BJQKl/6a/Vwqif4byhqK937fZvrcAlMyBNL8xvZ+l/bepZtL88rbY8mPL71tv0x1GOj+21q04XnX0NI8xV+Gsgr3w0OmX8zzSHbgsu8sQ4Btll0n1zj/QvZ+dKo0xA47jeuLUX7rDtNUr41LtEu/vAXk1yz/X1dlWkCojUv1WbWPUdgTblmV7Es7qGPTuvQ9AeqfpDz8RF/g6yvD4eT/jeSQrqCy0qxHgG2VXy/hOOt7T3vilLKvdhEZLvJtuvC5qq16qnlO59Wsr8WTkq2+2arMVWnXycnZkukfXs/Jv/bb0TNdybOl69Pzbdsse08LV9bBcYGSiCHO4Pm7O2h4D9y4CPf/O7V38eDSdJHDCn2dIpdOElBK4kj5ht34p2c7IaSvHOtK2O9zJnXdzMz28nYs9t/2Q0VLNVu9Kb4i99eeMzDB720PS/HL+av6ApD8ruQITCvs2xfDXH/A56pyz5w56BQEKt1ekMfgHccXbj0uTcuFk1GVo5WpJtGqBWmqt1dbcy9UDmN7vtZQzXVppbaGe6ObmoFeZvu669VtQtWPO9JXrNh9QvO22/r2hOWTEuxUfH5rHVj439DV2BUsZGBo3MfOMS3ke8YExQ/R+Anyj9P4c8whJgARIgAQCQIDCDUASWAUSIAESIIHeT4DC7f055hGSAAmQAAkEgACFG4AksAokQAIkQAK9nwCF2/tzzCMkARIgARIIAAEKNwBJYBVIgARIgAR6PwEKt/fnmEdIAiRAAiQQAAIUbgCSwCqQAAmQAAn0fgIUbu/PMY+QBEiABEggAAQo3AAkgVUgARIgARLo/QQo3N6fYx4hCZAACZBAAAhQuAFIAqtAAiRAAiTQ+wlQuL0/xzxCEiABEiCBABCgcAOQBFaBBEiABEig9xOgcHt/jnmEJEACJEACASBA4QYgCawCCZAACZBA7ydA4fb+HPMISYAESIAEAkCAwg1AElgFEiABEiCB3k+Awu39OeYRkgAJkAAJBIAAhRuAJLAKJEACJEACvZ8Ahdv7c8wjJAESIAESCAABCjcASWAVeo7AzY++IeXrq2GaEZTlJ/HAxPP4Hug5/NwTCezSBHiy2aXTv+sd/Ng7/yYr11ZBmREMjFRj3EkH4z/HHdvyPrjioddk6YoKxCIRDIo24g93/4DvkV2vmfCISSAnBHgyyQlWBu0JAg/NWSaLV67FxsoqJG0HiWQKUAbEMGBFLfS1HAwoVJh9zZiWdn7GPe/KqnV1gGFiSGQjzjt+f/x03FEtf7/gwffl86WrkBeJYlisBmccuRd+duHJfJ/0REK5DxLo5QR4IunlCe6Nhzd7zkp5+9NlWFvViNqEgZSbAkwDBrRvFVzDhLhAkTSgIFWNE782CPf85zleWz/tnndk3cZGuDYw2FyH8ScNx8TzRm8R7n1vy6Jla2CZJobl1eGMY/bFT88/KRTvk7t/9470iSRw1YTTQlHf3tg2eUwk0BEBvjHZPkJF4PrffCL/+GI56uw8pGDBtWIQtwmukwJgAxDYoqCUhT4qgYJkDU47aijuvPJ0r62fes97UrG+Dso1MDS6AeedsD9+Ov7olvfBLY99LqvWbYahgFKzBg9eMzbw75ErZr0qa9ZtQlO8CYfuWYJZ1/O6dKgaNSu7yxAI/Mlkl8kED3SHBH78y4/kgwVr4cCAYUaBRA0siaOsKILB/YowaEA/5MUsNLkKDY0J1G/agJr1q3Hs4fvi5ivOTgv3jn9IxeYGKNfF7rGNePmBi0P/HjjuxjlS2xhHVDk4YXgfPHTVWaE/ph02Bm5AAiEkwDdmCJO2K1b5xicWy98/WIS4UQrDbYBp12Nwno0TD90XUy8/stPt+JSpH8r6yno44mLPyAZ856QR+NG4IzpdPojsj5r8ltTU18OUBpx4wAD89095zTmIeWKdSCDUJxqmb9chcNxNf5NNtUlIrC8K7PUYFItj3EmH4ydjRnapDWvhVmyug3jC3Yjv/P/2zj0+qura47/zmpmEQCQBDNEkZIKQai2IWpMggtz2ApaQIAa49X399GNBtKBeAUMIEhSChertm9rWj1ZFSkFeFj9FIVQIKqJ+QAnhlaQQ8p7JvB/nnHU/ZwZNxgAlMcylnXX+yh/77Md37zW/rH3W2vv24Xi44JsLbvlbnxOpKvqYFTyaf223+vT1WXx+czXpahDz77zun9bz1MY6eqfyOLw+HyAEMCJ9AP78xOh/+l7srBweKRO4fAiwYV4+c8E9OQ+BkjdP0svvfIr4vv2gaRoGoAFTcjPx9N1jur1+vxJcXUe6qQlF47LxcCcP9+EXd9LJ+haIooT+cjvGjsrEj6ee22N86GfvUW1jG9wBFZquQ4IAsyjAougYkpKI38wLb2N3fn6++TPaeeAk2t1+yOTHzSOGY9m9t4TK/fD5PVTT0AKP3wdAg1kWkWwRcH1Gf5TP+s+v6npx8xGqOFANm2aCMyDA4dVBRgUCIV5UkWQWYYYPQtCNvOwBKPkRbzGzcTGBy4FAt3+wLodOcx9ii8CERdvpi1YZiWYJqseGm9Il/GlRz4KZxpd+SKdanaHgqnS5sYvgTltRQUdqWiAKIlJMLZiUm4V5M8dH2MmyTTW0o/JzNLd7oAsydAQBIoi6BFFSoEuAqHtgHSBhyzPTI959ftNR2lp5DHZvEBZRx3XZ1yCxXwI+O3QMjTY/dFEGIQBDQokARfejH3y4efgg/HxuWHSfWVdF7314BK1+BT4SAFGEEeWlC4CkqVC0AOIEPxTViXHfHogVc3rGKrZWGY+WCVx6Aiy4l54xt/ANCVz78JvksKQhEW4o7lbk56Wh7L97tm06rnQf1bc4DTlD2lnBnTW1Iw932ur9VF1rA0hEqliPO/Iy8ZPpt0bYyegF26jNSRAFHZKoISUpHoMHJQNQUN/sQF2bBzqpiNNsuDbVgrXFd331/nOb6+itPcfR6gpCJh/i48wQCfB7fTAKWSxy6F2PBgQFC2RBhqx6kGLxYseqsHgvX3uQdu0/jNag4cea4IcCCAIIGhTywqx60FcOQg66kJs9EM89VsR2/g3XIL/OBHqDABtib1DkOi4pgcz7Xyc9aRgSVBvigi34r/8YjieKRvVo7RqCe7ol7OFeJTdgxrhszOqUFlSwYh9V17VDFCQMluoxeXQW5s7oEPeClZVUdbwRJrMJSWYPxozIxLJ7Ir8BP/Lqcdr72VF4PE4MiidMvikN82eGT7NavqWONu07gSaHH6KgwSKqkINeDBnYB7eNHIrHC7ND5ZZurqO/fXwCxj8HkigjEe24LTsRqx6ZFDHuBevr6J39p+Dx+SAEnBg5pB/WPnV7j9hc0knkypkAEwj9U80PE7hsCSz/ay39dm0lhOThsPgbkKC14r6J1+PRwhE9WrvjSvbSqTZXeEvZ1IS7bhuG2VPD31CNp7C8kqprHWHBlc/gjlwr5s0MC+6SLbW0cWc1PP4g4mQV381KxEuPnftQjPyVH1J17RnEiwHkZCTg10+GhbLcqGPfSdTb/ZARgEl345oBFmwpK+wynjmvn6SKj6vgDYow+5sxcrCE15Z0TWMataCSXG4XpKA9lBa05vGO772X7cRyx5hADBLo0Y9WDHLiIf8/EVi2rZZe3rAflDgUsq8efdGG6bcNxVMzO0SyO10bW/x3Om33AIKOTLMNBXlWzJnWcdJU4cp9dKTGBlFQcLWpERNzrJg3I+yd3v2rT2n/MTv0gBsDEoAf5GZjUUHWOW3ovjWH6aODx0KBUUMTNWx8dkao3MqtJ+mtyn+gwe6HBB8GKj5MGJmG0gc6+tB5PGNK3qVGh4Z4ciJVacfbqyLPdn52Uy2tff8UvF4PFM2GMVYL1vxPx1GW3WHDZZkAE7i0BFhwLy1frr0XCGQ9uI7QfxgUfwPi9DbcmZeJkns7LhzoThNji3fTabsbxt6ONc6O/JxMPNpJcAvKK6mqxgZJVEIHY0z8ruHhhsVw8spKOnjKC4V86KuoGJaSgLRBCSDND8U4mooUBGGCPSDgxBk7Gm0+kOpGRkIA21d2eKZ5i94nI0DKAg+s/Qlblp1fIL+3tILqWoOwwI1UuR3bV90XYbPl22rpjd1n4HI7oZAdYzLNWPMkC2531gSXZQLRIsCCGy3S3E6PCWQ/tI7URCvMmgPka8bEEQOxenZk5PDFVj52UQXV290wgnutcY5QetGcTlvKBeX7qKqmLSS46ZZmTLzFirnTw4J7R/keOnwmCAS9kIy0HSNoStCM+xKMHWoY4cmCoECDAI0kiIoFQsCBwRZHxIlWeYv3UkOrF3G6E9eliFhXen6B/P7SCjrZosECF1JkO3as7iq4r/+9Hm63Gwo5kZdpxu+f4DSgi10PXI4JRJMAC240aXNbPSJw46x1ZBOuRLyZEPC04jsphPXPdET+dqfScSW7Qh6uLhCyLA7k32KN9HBXGB5uGyTJhHRzEybkZGHeWcH9/rIKOtZMEFQ/JArAREY6UBAC9LDi6nIonciIFzbqFwzR1VxITQjg7Rd+9JWt5RqC2+JGvObAqHQLXi3umq/75ZgmLq2gYy16yBu+UrHh3VX3RNjsiq019MaeMyHBlYMO5GVZ8IcnWXC7sya4LBOIFgEW3GiR5nZ6TGBq2d/ok5oAzPEm6EIAyWjGnWOy8VTRub97Xqih8SUVdLrdEFwgy9yOKTlWzL6zc9DUB+EtZUlCurkZEzp5uBOf20uH6/0wkQ8D+wAjrMmwpvSDSSSQHoCmI3RLkfF92EiiJUGEBB2PT4uMqM4tqaT6Fhf66A7clBGHV54+v0BOKttNx5o1mAQXBok27PxZpIe7fJshuPVwuzyQ/Q7kZip4eUE+23WPVxu/yAQuHQE2zEvHlmvuJQKlb1bT+vcOQ1NM8EFCH60ZmUkitj7b/YsHxi+uoDN2N1ToyDI7MOUWK2bf1SHcBZ083LSQh2vF49PD34tn/O8n9FFVCyyyjkQlgO/dkIaye0Z224ZyF1VSQ6srFAh1oyG4CyNTfTpj+0HZbjrarELRXbhStuG9F+7v0t6IhbvJ7Q5A9DmRkyHjlWIW3F5aelwNE+hVAt3+sejV1rkyJnCRBArLKujzulZo8QMgBdthggvXJJvxVln3rqIbX7KT6m1uaACGxoW3lCMFd+9ZD9cUDprKycS8s4L75OvHadveKgjGBffkw8hUywXF8nxDCwlumwvxuhM3DonHKwsmntcO85fupurmABTdjRTFhh0vPNCl7Kj5u6jdFYCs+vHtQSr+UjaV7foi1xUXYwLRJMCGGU3a3NY3IpAzdwM1+80wyVJo21ZSHbhCVnH90DQMTx+EuYXf6rKeS3+/iyyiHwsfDN+He3vxDqpv84YCm4bGtSM/dwgeKeo42GLK8vepqtYOSTSfDZrKwLxOB1+MXbidmtq9kEQJ/ciJa69OxEsLw5fbX8xjpAVt/KABhocbpztw45AEvLog3LdzPZOXGN+NA5DhxJVyO9598cEuZW9dtJMa23yhnewk2YFJN2eg9P7ub7dfTP+5DBNgAj0ncNE/FD1vgt9kAr1HYPQTm6jVrUIzJRpXzUMICW8ARmywWQIUiQDRBFUHBM0PSfPg+lQL1hSH82AnLdlNx07boQsisuJaUXCrFY8UdVyCUFi+lz492gxJiUO6fAaFo7Pwk5kdRzvOf/VzqvjkBFyqAqgqRN2PAVcoyEhNRnL/RMiyBJdfhd1uR2tTA5JMAby25O4IO8st3ktNNg8sugM3ZMThTxfYUh47/69UZ9OQIKsYZLLj3XN4uFNW7qGj/2iHJvaFEHQhHj6k9DdDDjphTVLx4oLI9ntvNrgmJsAEukOABbc7tLjsZUFgyjNvU12rF14N0KTwWcRGoLCoB0MCbJxpDEGCIgYgBZ24IVXGHxb/MLTWp5btJCNHViUxtGVcMHooZhV13AZ09+o9dKC6ISTa6XIzCm4dhtlfO0v5sd8doA8O1cAVMC4OkCGIGqCroVQhURBgxC0bfyvkx5AkBevLwm1/+Yx9ekdYcMmFEWkJeLn4Anm48zfRaQchQdGQLDuwfXVXD3fBG1/Qro+q4PCbQaE7iwAzeQFPK0ZeJeKPz0YelnFZTCJ3ggnEIAEW3Bic9H+HIS9df5AOfHEcDXYv/H7Dq1VAug5BEEFkJOYIsIhBmOENebi/XBgOsJqxbBsdP90CiBKuMtsxIXcYZhd1HIX4wE/foYMnmiDJJgyW2zApZzh+PL1rzu+yNw9R5aHjaHT44NOE0BY1jPaNIGWBYBE19IEHWQPj8MfFkak8k0u2UpPNBQt5cd3VffHrhedPcSpavJFqWrwwiyqSTW5sWj3rnDY7/6UP6JMjp2DzmdVTQgAAAbpJREFUBOHXBZhClyd48Z2rzfhl6b1s5/8Oi57H8C9PgA3xX34KeQDlGw6Rw+mBx+ODaqTj6IAkyUjqa0Hp1y4WeGHDZ2R3+yFKMvqb3Xh0Wtc7dZe+8TEJkoS+1I65M859VvKX1FdtPRq6w7bN5oSmasalPTArIpITLMhMvQJz8rue+fzTDYfIOI9Z1rx4+p68C9rgLzZ+SjYvQRHVUC7u3JkX7s/S1/aTze2DpAbRzyxi8UMXLs+rhwkwgegRYMGNHmtuiQkwASbABGKYAAtuDE8+D50JMAEmwASiR4AFN3qsuSUmwASYABOIYQIsuDE8+Tx0JsAEmAATiB4BFtzoseaWmAATYAJMIIYJsODG8OTz0JkAE2ACTCB6BFhwo8eaW2ICTIAJMIEYJsCCG8OTz0NnAkyACTCB6BFgwY0ea26JCTABJsAEYpgAC24MTz4PnQkwASbABKJHgAU3eqy5JSbABJgAE4hhAiy4MTz5PHQmwASYABOIHgEW3Oix5paYABNgAkwghgmw4Mbw5PPQmQATYAJMIHoEWHCjx5pbYgJMgAkwgRgmwIIbw5PPQ2cCTIAJMIHoEfg/HslPN7FXytAAAAAASUVORK5CYII=;" vertex="1" parent="1">
                    <mxGeometry x="300" y="200" width="476" height="388" as="geometry"/>
                </mxCell>
            </root>
        </mxGraphModel>
    </diagram>
</mxfile>